<svg width="22" height="22" viewBox="0 0 22 22" fill="none" xmlns="http://www.w3.org/2000/svg">
<path d="M20 16V7L6 7L6 16L20 16ZM20 2C20.5304 2 21.0391 2.21071 21.4142 2.58579C21.7893 2.96086 22 3.46957 22 4V16C22 16.5304 21.7893 17.0391 21.4142 17.4142C21.0391 17.7893 20.5304 18 20 18H6C5.46957 18 4.96086 17.7893 4.58579 17.4142C4.21071 17.0391 4 16.5304 4 16L4 4C4 3.46957 4.21071 2.96086 4.58579 2.58579C4.96086 2.21071 5.46957 2 6 2H7V0L9 0V2L17 2V0L19 0V2L20 2ZM16.53 10.06L12.09 14.5L9.41 11.82L10.47 10.76L12.09 12.38L15.47 9L16.53 10.06ZM2 20H16V22H2C1.46957 22 0.960859 21.7893 0.585786 21.4142C0.210714 21.0391 0 20.5304 0 20L0 8H2L2 20Z" fill="#2274A5"/>
</svg>
