<svg width="20" height="21" viewBox="0 0 20 21" fill="none" xmlns="http://www.w3.org/2000/svg">
<path d="M19.2453 10.5755C19.2448 8.0236 18.2308 5.57634 16.4263 3.77185C14.6218 1.96737 12.1746 0.953391 9.62264 0.952881V2.87741C11.145 2.87776 12.6332 3.32932 13.899 4.17506C15.1649 5.02079 16.1517 6.22275 16.7347 7.62907C17.1217 8.5632 17.3208 9.56442 17.3208 10.5755H19.2453ZM0 8.65099L0 3.83967C0 3.58447 0.101381 3.33971 0.281841 3.15925C0.4623 2.97879 0.707056 2.87741 0.962264 2.87741L5.77359 2.87741C6.02879 2.87741 6.27355 2.97879 6.45401 3.15925C6.63447 3.33971 6.73585 3.58447 6.73585 3.83967V7.68873C6.73585 7.94394 6.63447 8.18869 6.45401 8.36915C6.27355 8.54961 6.02879 8.65099 5.77359 8.65099H3.84906C3.84906 10.6927 4.66011 12.6507 6.10378 14.0944C7.54746 15.5381 9.5055 16.3491 11.5472 16.3491L11.5472 14.4246C11.5472 14.1694 11.6486 13.9246 11.829 13.7442C12.0095 13.5637 12.2542 13.4623 12.5094 13.4623L16.3585 13.4623C16.6137 13.4623 16.8585 13.5637 17.0389 13.7442C17.2194 13.9246 17.3208 14.1694 17.3208 14.4246V19.2359C17.3208 19.4911 17.2194 19.7359 17.0389 19.9163C16.8585 20.0968 16.6137 20.1982 16.3585 20.1982H11.5472C5.17025 20.1982 0 15.0279 0 8.65099Z" fill="#2274A5"/>
<path d="M14.9564 8.36623C15.2469 9.06659 15.3963 9.81738 15.3961 10.5756H13.6641C13.6642 10.0448 13.5597 9.51921 13.3567 9.02882C13.1536 8.53842 12.8559 8.09284 12.4806 7.71753C12.1053 7.34221 11.6597 7.04452 11.1693 6.84146C10.6789 6.6384 10.1533 6.53395 9.62256 6.53408V4.802C10.7644 4.80206 11.8806 5.14072 12.8301 5.77514C13.7795 6.40957 14.5194 7.31127 14.9564 8.36623Z" fill="#2274A5"/>
</svg>
